<?xml version="1.0" encoding="utf-8"?>
<!-- Generator: Adobe Illustrator 19.2.1, SVG Export Plug-In . SVG Version: 6.00 Build 0)  -->
<svg version="1.1" id="Layer_1" xmlns="http://www.w3.org/2000/svg" xmlns:xlink="http://www.w3.org/1999/xlink" x="0px" y="0px"
	 viewBox="0 0 269.9 71.5" enable-background="new 0 0 269.9 71.5" xml:space="preserve">
<circle fill="#3C81BA" cx="35.8" cy="35.8" r="35.8"/>
<path fill="#409D27" d="M44.5,40.7c0,9.8,7.9,17.7,17.7,17.7c0.5,0,0.9,0,1.3-0.1c5-6.1,8-14,8-22.5c0-3.9-0.6-7.6-1.7-11
	c-2.3-1.1-4.9-1.7-7.6-1.7C52.4,23,44.5,30.9,44.5,40.7z"/>
<path fill="#CE2891" d="M43.5,29.7c0,8.1-6.6,14.7-14.7,14.7c-8.1,0-14.7-6.6-14.7-14.7c0-8.1,6.6-14.7,14.7-14.7
	C36.9,15,43.5,21.6,43.5,29.7"/>
<path fill="#3C81BA" d="M46.9,26.8c0,4.8-3.3,9.5-8.1,9.5s-9.3-4.7-9.3-9.5c0-4.8,3.9-8.7,8.7-8.7S46.9,22,46.9,26.8"/>
<path fill="#2C3D99" d="M53.8,47.9c0,7.3-5.9,13.2-13.3,13.2c-7.3,0-13.3-5.9-13.3-13.2c0-7.3,5.9-13.3,13.3-13.3
	C47.9,34.7,53.8,40.6,53.8,47.9"/>
<path fill="#FF0000" d="M17.3,31.9c0,3.8-3.1,6.9-6.9,6.9c-3.8,0-6.9-3.1-6.9-6.9c0-3.8,3.1-6.9,6.9-6.9
	C14.2,25,17.3,28.1,17.3,31.9"/>
<path fill="#FF0000" d="M67.6,45.6c0,3.2-2.6,5.8-5.7,5.8c-3.2,0-5.7-2.6-5.7-5.8c0-3.2,2.6-5.7,5.7-5.7
	C65.1,39.8,67.6,42.4,67.6,45.6"/>
<path fill="#FF0000" d="M55.4,53.7c-4.5,0-8.1,3.6-8.1,8.1c0,2.7,1.3,5,3.3,6.5c4.8-2.2,9-5.4,12.3-9.3
	C61.8,55.9,58.9,53.7,55.4,53.7z"/>
<path fill="#409D27" d="M22,46.7c-6.8,0-12.7,3.8-15.6,9.4c6.5,9.3,17.2,15.4,29.4,15.4c0.8,0,1.6,0,2.4-0.1
	c0.9-2.2,1.5-4.6,1.5-7.1C39.7,54.6,31.8,46.7,22,46.7z"/>
<path fill="#3C81BA" d="M37.6,40.5c0,7.8-6.3,14.1-14.1,14.1c-7.8,0-14.1-6.3-14.1-14.1c0-7.8,6.3-14.1,14.1-14.1
	C31.3,26.3,37.6,32.7,37.6,40.5"/>
<path fill="#FFA80D" d="M43.8,56.3c-5.7,0-10.3,4.6-10.3,10.3c0,1.7,0.4,3.4,1.2,4.8c0.4,0,0.7,0,1.1,0c6.7,0,13-1.9,18.4-5.1
	C54,60.8,49.5,56.3,43.8,56.3z"/>
<path fill="#2C3D99" d="M18.2,51.9c0-3.9-3.2-7.1-7.1-7.1C7.2,44.8,4,48,4,51.9c0,0.1,0,0.2,0,0.3c1.1,2.2,2.5,4.2,4,6.1
	c0.9,0.4,2,0.7,3.1,0.7C15,59,18.2,55.8,18.2,51.9z"/>
<path fill="#FFA80D" d="M14.8,64.7c2.9-2.7,4.7-6.5,4.7-10.7c0-8.1-6.6-14.7-14.7-14.7c-1.6,0-3.1,0.3-4.6,0.7
	C1.5,50.2,6.9,59,14.8,64.7z"/>
<path fill="#409D27" d="M1.2,26.7C3.4,28,6,28.8,8.8,28.8c8.1,0,14.7-6.6,14.7-14.7c0-4-1.6-7.6-4.1-10.2
	C10.5,8.6,3.8,16.8,1.2,26.7z"/>
<path fill="#FF0000" d="M25.8,11.1c0,7.9,6.4,14.2,14.3,14.2c7.9,0,14.3-6.4,14.3-14.2c0-2.5-0.6-4.8-1.8-6.9
	C47.6,1.5,41.8,0,35.8,0c-1.7,0-3.4,0.1-5,0.4C27.7,3,25.8,6.8,25.8,11.1z"/>
<path fill="#76238D" d="M43.7,16c0,6.6,5.4,12,12,12c5.6,0,10.3-3.9,11.6-9.1C64,12.8,59,7.7,52.9,4.3C47.6,5.6,43.7,10.3,43.7,16z"
	/>
<path fill="#CE2891" d="M62,23.3c0,2.8,2.3,5.1,5.1,5.1c1.3,0,2.5-0.5,3.3-1.3c-0.8-3.2-2-6.1-3.6-8.9C64.2,18.3,62,20.5,62,23.3z"
	/>
<path fill="#FFFFFF" d="M25.6,42.8c-2.4,1.2-4.2,1.7-6.7,1.7c-6.7,0-10-4.3-10-8.7c0-4.6,3.7-8.8,10.3-8.8c2.4,0,4.5,0.5,6.2,1.5
	v3.8c-1.9-1.1-3.8-1.8-5.9-1.8c-3.6,0-6.2,2.2-6.2,5.2c0,3.1,2.5,5.3,6.1,5.3c2.2,0,3.7-0.7,6.2-1.9V42.8z"/>
<path fill="#FFFFFF" d="M40.8,31.6c-2.5-1.1-4-1.5-5.4-1.5c-1.5,0-2.5,0.6-2.5,1.4c0,2.6,8.7,1.9,8.7,7.8c0,3.3-2.8,5.2-6.6,5.2
	c-3,0-4.5-0.8-6.2-1.7v-3.7c2.5,1.6,4,2.2,5.9,2.2c1.6,0,2.5-0.6,2.5-1.6c0-2.8-8.7-1.8-8.7-7.9c0-3,2.6-4.9,6.5-4.9
	c1.9,0,3.6,0.4,5.8,1.3V31.6z"/>
<path fill="#FFFFFF" d="M61.2,32.1c-2.2-1.1-4.3-1.6-6.4-1.6c-4.6,0-6.3,2.9-6.3,5.4c0,3,2.4,5.1,5.9,5.1c1.1,0,1.6-0.1,2.8-0.6v-2
	h-2.5v-3.1h6.8v7c-1.3,1.3-4.4,2.3-7.2,2.3c-6,0-10.2-3.6-10.2-8.8c0-5.2,4.2-8.8,10.3-8.8c2.6,0,5.1,0.6,6.8,1.4V32.1z"/>
<path fill="#FFFFFF" d="M164.5,53.9h-1.7v9.2h1.7v-5c0-1.8,0.5-2.2,0.7-2.4c0.7-0.7,1.7-0.7,1.7-0.7c1.5,0,2.1,0.8,2.1,2.3v5.8h1.7v-6.3
	c0-2.9-2.8-3.1-3.5-3.1c-0.9,0-2.2,0.5-2.8,1.6h0V53.9z M153.7,57.6c0-1.5,0.9-2.7,2.3-2.7c1.7,0,2.4,1.2,2.3,2.7H153.7z
	 M160.2,58.8v-0.9c0-2.5-1.3-4.3-4-4.3c-2.9,0-4.3,2.2-4.3,4.9c0,2.7,1.2,4.8,4.1,4.8c2.2,0,3.8-1,4.1-3.1h-1.8
	c-0.2,1.3-0.9,1.9-2.2,1.9c-1.8,0-2.4-1.7-2.3-3.3H160.2z M147.7,55.3c0,0.1-0.2-0.4-0.3-0.4c-0.6-0.8-1.6-1.2-2.5-1.2
	c-2.8,0-4.3,2.1-4.3,4.7c0,2.6,1.1,4.5,3.9,4.5c1.1,0,2.5-0.5,3-1.5h0.1c-0.1,2.1-0.1,4.1-2.5,4.1c-1.2,0-2.1-0.5-2.1-1.7h-1.8
	c0,2.1,1.4,3,3.4,3c3.4,0,4.8-1.4,4.8-4.7v-6.4c0-0.5,0.1-1.1,0.1-1.6h-1.8L147.7,55.3z M142.6,58.3c0-1.4,0.5-3.4,2.6-3.4
	c1.9,0,2.6,1.6,2.6,3.4c0,1.8-0.7,3.4-2.6,3.4C143.1,61.6,142.6,59.7,142.6,58.3 M132,53.9h-1.7v9.2h1.7v-5c0-1.8,0.5-2.2,0.7-2.4
	c0.7-0.7,1.7-0.7,1.7-0.7c1.5,0,2.1,0.8,2.1,2.3v5.8h1.7v-6.3c0-2.9-2.8-3.1-3.5-3.1c-0.9,0-2.2,0.5-2.8,1.6h0V53.9z M125.1,51.8
	h2.1v-1.9h-2.1V51.8z M127,53.9h-1.7v9.2h1.7V53.9z M115.7,53.9H114v9.2h1.7v-5c0-1.8,0.5-2.2,0.7-2.4c0.7-0.7,1.7-0.7,1.7-0.7
	c1.5,0,2.1,0.8,2.1,2.3v5.8h1.7v-6.3c0-2.9-2.8-3.1-3.5-3.1c-0.9,0-2.2,0.5-2.8,1.6h0V53.9z M104.1,58.5c0-2,0.7-3.6,2.7-3.6
	c2.1,0,2.7,1.6,2.7,3.6c0,2-0.7,3.6-2.7,3.6C104.8,62.1,104.1,60.4,104.1,58.5 M106.8,53.6c-3,0-4.6,2-4.6,4.9s1.6,4.9,4.6,4.9
	c3,0,4.6-2,4.6-4.9S109.8,53.6,106.8,53.6 M97.6,58.5c0-1.9,0.4-3.1,2.6-3.2c0.2,0,0.5,0,0.7,0.1v-1.6c-0.2,0-0.4,0-0.6,0
	c-1.3,0-2.4,0.6-2.7,1.9h0v-1.8h-1.7v9.2h1.7V58.5z M90.9,55.3c0,0.1-0.2-0.4-0.3-0.4c-0.6-0.8-1.6-1.2-2.4-1.2
	c-2.8,0-4.3,2.1-4.3,4.7c0,2.6,1.1,4.5,3.9,4.5c1.1,0,2.5-0.5,3-1.5h0.1c-0.1,2.1-0.1,4.1-2.5,4.1c-1.2,0-2.1-0.5-2.1-1.7h-1.8
	c0,2.1,1.4,3,3.4,3c3.4,0,4.8-1.4,4.8-4.7v-6.4c0-0.5,0.1-1.1,0.1-1.6h-1.8L90.9,55.3z M85.7,58.3c0-1.4,0.5-3.4,2.6-3.4
	c1.9,0,2.6,1.6,2.6,3.4c0,1.8-0.7,3.4-2.6,3.4C86.3,61.6,85.7,59.7,85.7,58.3"/>
<path fill="#FFFFFF" d="M261.1,44.7h1.7v-4.5h0.1c0.6,0.9,1.8,1.3,2.6,1.3c3.3,0,4.4-2.5,4.4-4.9c0-2.5-1.3-4.9-3.9-4.9c-1.4,0-2.6,0.4-3.1,1.7h0
	l-0.1-1.5H261c0,0.5,0.1,1.1,0.1,1.6V44.7z M268,36.6c0,1.7-0.6,3.6-2.8,3.6c-1.9,0-2.4-1.9-2.4-3.6c0-1.7,0.6-3.6,2.6-3.6
	C267.5,33,268,34.8,268,36.6 M254.8,35.5c-2.2,0-4.5,0.7-4.5,3.3c0,1.8,1.6,2.6,3.2,2.6c1.3,0,2.3-0.5,2.8-1.6h0
	c0,0.4,0.1,0.8,0.1,1.2c0,0.2,0.3,0.1,0.5,0.1h1.2c-0.1-0.8-0.1-1.5-0.1-1.9v-4.4c0-2.6-1.9-3.1-3.7-3.1c-1.8,0-3.4,0.7-3.5,2.7h1.8
	c0-0.9,0.8-1.5,1.7-1.5c1.8,0,1.9,0.9,1.9,2.5H254.8z M256.4,36.7c0,1.7-0.3,3.5-2.4,3.5c-1,0-1.8-0.6-1.8-1.7
	c0-1.3,1.4-1.7,2.5-1.8H256.4z M241.6,41.1v-4.7c0-0.5-0.1-1.2,0.3-2.1c0.3-0.8,1.4-1.3,2.1-1.3c1.6,0,2,1.1,2,2.7v5.4h1.7v-6.2
	c0-1.6-0.7-3.2-3.1-3.2c-1.3,0-2.3,0.5-3,1.5h0V28h-1.7v13.2H241.6z M237.6,34.9c-0.1-2-1.6-3.2-3.5-3.2c-2.9,0-4.3,2.2-4.3,4.9
	c0,2.7,1.2,4.8,4.1,4.8c2,0,3.6-1.3,3.7-3.3h-1.7c-0.1,1.3-0.8,2.1-2,2.1c-1.7,0-2.3-1.4-2.3-3.6c0-2.2,0.6-3.6,2.3-3.6
	c1.2,0,1.8,0.8,1.9,2L237.6,34.9z M220.9,34.5c0,3.6,5.6,2,5.6,4.1c0,1.2-1,1.6-2.1,1.6c-1.1,0-1.8-0.6-1.9-1.7h-1.8
	c0,2.1,1.6,3,3.5,3c1.9,0,4.1-0.7,4.1-2.9c0-2.1-1.8-2.2-3.3-2.8c-0.7-0.2-2.2-0.3-2.2-1.3c0-1,0.8-1.5,1.7-1.5c1,0,1.9,0.4,1.8,1.6
	h1.8c0.1-2.1-1.8-2.8-3.6-2.8C222.9,31.7,220.9,32.6,220.9,34.5 M212.2,32h-1.7v9.2h1.7v-5c0-1.8,0.5-2.2,0.7-2.5
	c0.7-0.7,1.7-0.7,1.7-0.7c1.5,0,2.1,0.8,2.1,2.3v5.8h1.7v-6.3c0-2.9-2.8-3.1-3.5-3.1c-0.9,0-2.2,0.5-2.8,1.6h0V32z M201.4,35.7
	c0-1.5,0.9-2.7,2.3-2.7c1.7,0,2.4,1.2,2.3,2.7H201.4z M207.9,36.9V36c0-2.5-1.3-4.3-4-4.3c-2.9,0-4.3,2.2-4.3,4.9
	c0,2.7,1.2,4.8,4.1,4.8c2.2,0,3.8-1,4.1-3.1h-1.8c-0.2,1.3-0.9,1.9-2.2,1.9c-1.8,0-2.4-1.7-2.3-3.3H207.9z M191.3,35.7
	c0-1.5,0.9-2.7,2.3-2.7c1.7,0,2.4,1.2,2.3,2.7H191.3z M197.7,36.9V36c0-2.5-1.3-4.3-4-4.3c-2.9,0-4.3,2.2-4.3,4.9
	c0,2.7,1.2,4.8,4.1,4.8c2.2,0,3.8-1,4.1-3.1h-1.8c-0.2,1.3-0.9,1.9-2.2,1.9c-1.8,0-2.4-1.7-2.3-3.3H197.7z M174.6,32h-1.7v9.2h1.7
	v-4.7c0-0.2-0.1-1.4,0.1-1.9c0.5-1.2,1.6-1.5,2.3-1.5c1.7,0,2,1.1,2,2.7v5.4h1.7v-4.7c0-0.2-0.1-1.1,0.2-2c0.3-1.1,1.5-1.4,2-1.4
	c2,0,2.2,1.4,2.2,2.7v5.4h1.7v-6.5c0-1.6-1.3-3-3.4-3c-1.4,0-2.4,0.6-3.1,1.7c-0.5-1.1-1.5-1.7-3.2-1.7c-0.9,0-2.1,0.4-2.6,1.6h0V32
	z M163.9,35.7c0-1.5,0.9-2.7,2.3-2.7c1.7,0,2.4,1.2,2.3,2.7H163.9z M170.3,36.9V36c0-2.5-1.3-4.3-4-4.3c-2.9,0-4.3,2.2-4.3,4.9
	c0,2.7,1.2,4.8,4.1,4.8c2.2,0,3.8-1,4.1-3.1h-1.8c-0.2,1.3-0.9,1.9-2.2,1.9c-1.8,0-2.4-1.7-2.3-3.3H170.3z M157.9,33.3
	c0,0.1-0.2-0.4-0.3-0.4c-0.6-0.8-1.6-1.2-2.4-1.2c-2.8,0-4.3,2.1-4.3,4.7c0,2.6,1.1,4.5,3.9,4.5c1.1,0,2.5-0.5,3-1.5h0.1
	c-0.1,2.1-0.1,4.1-2.5,4.1c-1.2,0-2.1-0.5-2.1-1.7h-1.8c0,2.1,1.4,3,3.4,3c3.4,0,4.8-1.4,4.8-4.7v-6.4c0-0.5,0.1-1.1,0.1-1.6h-1.8
	L157.9,33.3z M152.7,36.3c0-1.4,0.5-3.4,2.6-3.4c1.9,0,2.6,1.6,2.6,3.4c0,1.8-0.7,3.4-2.6,3.4C153.3,39.7,152.7,37.8,152.7,36.3
	 M142.1,32h-1.7v9.2h1.7v-5c0-1.8,0.5-2.2,0.7-2.5c0.7-0.7,1.7-0.7,1.7-0.7c1.5,0,2.1,0.8,2.1,2.3v5.8h1.7v-6.3
	c0-2.9-2.8-3.1-3.5-3.1c-0.9,0-2.2,0.5-2.8,1.6h0V32z M131.4,35.7c0-1.5,0.9-2.7,2.3-2.7c1.7,0,2.4,1.2,2.3,2.7H131.4z M137.9,36.9
	V36c0-2.5-1.3-4.3-4-4.3c-2.9,0-4.3,2.2-4.3,4.9c0,2.7,1.2,4.8,4.1,4.8c2.2,0,3.8-1,4.1-3.1h-1.8c-0.2,1.3-0.9,1.9-2.2,1.9
	c-1.8,0-2.4-1.7-2.3-3.3H137.9z M127,28h-1.7v13.2h1.7V28z M115.2,36.6c0-2,0.7-3.6,2.7-3.6c2.1,0,2.7,1.6,2.7,3.6
	c0,2-0.7,3.6-2.7,3.6C115.9,40.2,115.2,38.5,115.2,36.6 M118,31.7c-3,0-4.6,2-4.6,4.9c0,2.8,1.6,4.9,4.6,4.9c3,0,4.6-2,4.6-4.9
	C122.6,33.7,121,31.7,118,31.7 M104.6,41.1v-4.7c0-0.5-0.1-1.2,0.3-2.1c0.3-0.8,1.4-1.3,2.1-1.3c1.6,0,2,1.1,2,2.7v5.4h1.7v-6.2
	c0-1.6-0.7-3.2-3.1-3.2c-1.3,0-2.3,0.5-3,1.5h0V28h-1.7v13.2H104.6z M100.6,34.9c-0.1-2-1.6-3.2-3.5-3.2c-2.9,0-4.3,2.2-4.3,4.9
	c0,2.7,1.2,4.8,4.1,4.8c2,0,3.6-1.3,3.7-3.3h-1.7c-0.1,1.3-0.8,2.1-2,2.1c-1.7,0-2.3-1.4-2.3-3.6c0-2.2,0.6-3.6,2.3-3.6
	c1.2,0,1.8,0.8,1.9,2L100.6,34.9z M83.9,34.5c0,3.6,5.6,2,5.6,4.1c0,1.2-1,1.6-2.1,1.6c-1.1,0-1.8-0.6-1.9-1.7h-1.8
	c0,2.1,1.6,3,3.5,3c1.9,0,4.1-0.7,4.1-2.9c0-2.1-1.8-2.2-3.3-2.8c-0.7-0.2-2.2-0.3-2.2-1.3c0-1,0.8-1.5,1.7-1.5c1,0,1.9,0.4,1.8,1.6
	h1.8c0.1-2.1-1.8-2.8-3.6-2.8C85.9,31.7,83.9,32.6,83.9,34.5"/>
<path fill="#FFFFFF" d="M167.9,13.8c0-1.5,0.9-2.7,2.3-2.7c1.7,0,2.4,1.2,2.3,2.7H167.9z M174.4,15v-0.9c0-2.5-1.3-4.3-4-4.3
	c-2.9,0-4.3,2.2-4.3,4.9c0,2.7,1.2,4.8,4.1,4.8c2.2,0,3.8-1,4.1-3.1h-1.8c-0.2,1.3-0.9,1.9-2.2,1.9c-1.8,0-2.4-1.7-2.3-3.3H174.4z
	 M159.2,19.2v-4.9h0l3.6,4.9h2.2L161,14l3.9-3.9h-2.2l-3.4,3.7V6h-1.7v13.2H159.2z M154.6,6h-2.1v1.9h2.1V6z M154.5,10.1h-1.7v10.2
	c0,0.5,0.1,1.4-1.6,1.2v1.2c0.4,0.1,0.7,0.1,1.1,0.1c1.9,0,2.3-1.4,2.3-2.9V10.1z M147.4,7.9h2.1V6h-2.1V7.9z M149.3,10.1h-1.7v9.2
	h1.7V10.1z M144.2,6h-1.7v13.2h1.7V6z M133.4,13.8c0-1.5,0.9-2.7,2.3-2.7c1.7,0,2.4,1.2,2.3,2.7H133.4z M139.9,15v-0.9
	c0-2.5-1.3-4.3-4-4.3c-2.9,0-4.3,2.2-4.3,4.9c0,2.7,1.2,4.8,4.1,4.8c2.2,0,3.8-1,4.1-3.1H138c-0.2,1.3-0.9,1.9-2.2,1.9
	c-1.8,0-2.4-1.7-2.3-3.3H139.9z M124.7,10v1.3l1.6,0v5.8c0,1.2,0.1,1.3,0.4,1.7c0.3,0.4,0.8,0.5,1,0.6c0.4,0.1,0.7,0.1,1.2,0.1
	c0.4,0,0.8-0.1,1.2-0.1v-1.3c-0.3,0.1-0.6,0.1-0.9,0.1c-0.6,0-1.1-0.3-1.1-1v-5.9l2.1,0V10l-2.1,0.1V7.6l-1.7,0.5v2L124.7,10z
	 M116.4,12.6c0,3.6,5.6,2.1,5.6,4.1c0,1.2-1,1.6-2.1,1.6c-1.1,0-1.8-0.6-1.9-1.7h-1.8c0,2.1,1.6,3,3.5,3c1.9,0,4.1-0.7,4.1-2.9
	c0-2.1-1.8-2.2-3.3-2.8c-0.7-0.2-2.2-0.3-2.2-1.3c0-1,0.7-1.5,1.7-1.5c1,0,1.9,0.4,1.8,1.6h1.8c0.1-2.1-1.8-2.8-3.6-2.8
	C118.4,9.8,116.4,10.6,116.4,12.6 M111.9,7.9h2.1V6h-2.1V7.9z M113.8,10.1h-1.7v9.2h1.7V10.1z M106.7,14.7c0-1.9,0.4-3.1,2.6-3.2
	c0.2,0,0.5,0,0.7,0.1V10c-0.2,0-0.4,0-0.6,0c-1.3,0-2.4,0.6-2.7,1.9h0v-1.8H105v9.2h1.7V14.7z M95.5,19.2v-4.7
	c0-0.5-0.1-1.2,0.3-2.1c0.3-0.8,1.4-1.3,2.1-1.3c1.6,0,2,1.1,2,2.7v5.4h1.7V13c0-1.6-0.7-3.2-3.1-3.2c-1.3,0-2.3,0.5-3,1.5h0V6h-1.7
	v13.2H95.5z M91.4,13c-0.1-2-1.5-3.2-3.5-3.2c-2.9,0-4.3,2.2-4.3,4.9c0,2.7,1.2,4.8,4.1,4.8c2,0,3.6-1.3,3.7-3.3h-1.7
	c-0.1,1.3-0.8,2.1-2,2.1c-1.7,0-2.3-1.4-2.3-3.6c0-2.2,0.6-3.6,2.3-3.6c1.2,0,1.8,0.8,1.9,2H91.4z"/>
<path fill="#FFA80D" d="M31.7,14.8c0,4.2-3.4,7.6-7.6,7.6s-7.6-3.4-7.6-7.6c0-4.2,3.4-7.6,7.6-7.6S31.7,10.6,31.7,14.8"/>
<path fill="#2C3D99" d="M25.8,11.8c4,0,7.3-3.3,7.3-7.3c0-1.6-0.5-3.1-1.4-4.3c-4.7,0.5-9.1,2-13,4.2c0,0.1,0,0.1,0,0.2
	C18.5,8.6,21.7,11.8,25.8,11.8z"/>
<path fill="#CE2891" d="M2.6,35.8c2.8,0,5.1-2.3,5.1-5.1c0-2.8-2.3-5.1-5.1-5.1c-0.4,0-0.8,0.1-1.2,0.1c-0.9,3-1.3,6.1-1.4,9.3
	C0.8,35.6,1.6,35.8,2.6,35.8z"/>
</svg>
